<mxfile host="app.diagrams.net" agent="Mozilla/5.0 (Windows NT 10.0; Win64; x64) AppleWebKit/537.36 (KHTML, like Gecko) Chrome/128.0.0.0 Safari/537.36 Edg/128.0.0.0" version="24.7.13">
  <diagram name="Page-1" id="kEfgAYSs4FHf658l3F-P">
    <mxGraphModel dx="1386" dy="841" grid="0" gridSize="10" guides="1" tooltips="1" connect="1" arrows="1" fold="1" page="1" pageScale="1" pageWidth="3300" pageHeight="4681" math="0" shadow="0">
      <root>
        <mxCell id="0" />
        <mxCell id="1" parent="0" />
        <mxCell id="njtFuP-jJVBL_cVE-IeT-233" value="Authorization" style="swimlane;fontStyle=0;childLayout=stackLayout;horizontal=1;startSize=30;horizontalStack=0;resizeParent=1;resizeParentMax=0;resizeLast=0;collapsible=1;marginBottom=0;whiteSpace=wrap;html=1;fillColor=#dae8fc;strokeColor=#6c8ebf;" vertex="1" parent="1">
          <mxGeometry x="134" y="209" width="166" height="120" as="geometry">
            <mxRectangle x="134" y="209" width="105" height="30" as="alternateBounds" />
          </mxGeometry>
        </mxCell>
        <mxCell id="njtFuP-jJVBL_cVE-IeT-234" value="ID" style="text;strokeColor=#666666;fillColor=#f5f5f5;align=left;verticalAlign=middle;spacingLeft=4;spacingRight=4;overflow=hidden;points=[[0,0.5],[1,0.5]];portConstraint=eastwest;rotatable=0;whiteSpace=wrap;html=1;fontColor=#333333;" vertex="1" parent="njtFuP-jJVBL_cVE-IeT-233">
          <mxGeometry y="30" width="166" height="30" as="geometry" />
        </mxCell>
        <mxCell id="njtFuP-jJVBL_cVE-IeT-235" value="LOGIN" style="text;strokeColor=none;fillColor=none;align=left;verticalAlign=middle;spacingLeft=4;spacingRight=4;overflow=hidden;points=[[0,0.5],[1,0.5]];portConstraint=eastwest;rotatable=0;whiteSpace=wrap;html=1;" vertex="1" parent="njtFuP-jJVBL_cVE-IeT-233">
          <mxGeometry y="60" width="166" height="30" as="geometry" />
        </mxCell>
        <mxCell id="njtFuP-jJVBL_cVE-IeT-236" value="PASSWORD" style="text;strokeColor=none;fillColor=none;align=left;verticalAlign=middle;spacingLeft=4;spacingRight=4;overflow=hidden;points=[[0,0.5],[1,0.5]];portConstraint=eastwest;rotatable=0;whiteSpace=wrap;html=1;" vertex="1" parent="njtFuP-jJVBL_cVE-IeT-233">
          <mxGeometry y="90" width="166" height="30" as="geometry" />
        </mxCell>
        <mxCell id="njtFuP-jJVBL_cVE-IeT-238" value="Users" style="swimlane;fontStyle=0;childLayout=stackLayout;horizontal=1;startSize=30;horizontalStack=0;resizeParent=1;resizeParentMax=0;resizeLast=0;collapsible=1;marginBottom=0;whiteSpace=wrap;html=1;fillColor=#dae8fc;strokeColor=#6c8ebf;" vertex="1" parent="1">
          <mxGeometry x="438" y="209" width="140" height="122" as="geometry" />
        </mxCell>
        <mxCell id="njtFuP-jJVBL_cVE-IeT-239" value="ID" style="text;strokeColor=none;fillColor=none;align=left;verticalAlign=middle;spacingLeft=4;spacingRight=4;overflow=hidden;points=[[0,0.5],[1,0.5]];portConstraint=eastwest;rotatable=0;whiteSpace=wrap;html=1;" vertex="1" parent="njtFuP-jJVBL_cVE-IeT-238">
          <mxGeometry y="30" width="140" height="30" as="geometry" />
        </mxCell>
        <mxCell id="njtFuP-jJVBL_cVE-IeT-240" value="FIRST_NAME" style="text;strokeColor=none;fillColor=none;align=left;verticalAlign=middle;spacingLeft=4;spacingRight=4;overflow=hidden;points=[[0,0.5],[1,0.5]];portConstraint=eastwest;rotatable=0;whiteSpace=wrap;html=1;" vertex="1" parent="njtFuP-jJVBL_cVE-IeT-238">
          <mxGeometry y="60" width="140" height="30" as="geometry" />
        </mxCell>
        <mxCell id="njtFuP-jJVBL_cVE-IeT-241" value="LAST_NAME" style="text;strokeColor=none;fillColor=none;align=left;verticalAlign=middle;spacingLeft=4;spacingRight=4;overflow=hidden;points=[[0,0.5],[1,0.5]];portConstraint=eastwest;rotatable=0;whiteSpace=wrap;html=1;" vertex="1" parent="njtFuP-jJVBL_cVE-IeT-238">
          <mxGeometry y="90" width="140" height="32" as="geometry" />
        </mxCell>
        <mxCell id="njtFuP-jJVBL_cVE-IeT-243" value="Massage" style="swimlane;fontStyle=0;childLayout=stackLayout;horizontal=1;startSize=30;horizontalStack=0;resizeParent=1;resizeParentMax=0;resizeLast=0;collapsible=1;marginBottom=0;whiteSpace=wrap;html=1;fillColor=#dae8fc;strokeColor=#6c8ebf;" vertex="1" parent="1">
          <mxGeometry x="740" y="247" width="140" height="90" as="geometry" />
        </mxCell>
        <mxCell id="njtFuP-jJVBL_cVE-IeT-244" value="Client_ID (Foreign key)" style="text;strokeColor=#666666;fillColor=#f5f5f5;align=left;verticalAlign=middle;spacingLeft=4;spacingRight=4;overflow=hidden;points=[[0,0.5],[1,0.5]];portConstraint=eastwest;rotatable=0;whiteSpace=wrap;html=1;fontColor=#333333;" vertex="1" parent="njtFuP-jJVBL_cVE-IeT-243">
          <mxGeometry y="30" width="140" height="30" as="geometry" />
        </mxCell>
        <mxCell id="njtFuP-jJVBL_cVE-IeT-245" value="Massage" style="text;strokeColor=none;fillColor=none;align=left;verticalAlign=middle;spacingLeft=4;spacingRight=4;overflow=hidden;points=[[0,0.5],[1,0.5]];portConstraint=eastwest;rotatable=0;whiteSpace=wrap;html=1;" vertex="1" parent="njtFuP-jJVBL_cVE-IeT-243">
          <mxGeometry y="60" width="140" height="30" as="geometry" />
        </mxCell>
        <mxCell id="njtFuP-jJVBL_cVE-IeT-254" style="edgeStyle=none;curved=1;rounded=0;orthogonalLoop=1;jettySize=auto;html=1;exitX=1;exitY=0.5;exitDx=0;exitDy=0;entryX=0;entryY=0.5;entryDx=0;entryDy=0;fontSize=12;startSize=8;endSize=8;" edge="1" parent="1" source="njtFuP-jJVBL_cVE-IeT-246" target="njtFuP-jJVBL_cVE-IeT-243">
          <mxGeometry relative="1" as="geometry" />
        </mxCell>
        <mxCell id="njtFuP-jJVBL_cVE-IeT-255" style="edgeStyle=none;curved=1;rounded=0;orthogonalLoop=1;jettySize=auto;html=1;exitX=1;exitY=0.5;exitDx=0;exitDy=0;entryX=0;entryY=0.5;entryDx=0;entryDy=0;fontSize=12;startSize=8;endSize=8;" edge="1" parent="1" source="njtFuP-jJVBL_cVE-IeT-246" target="njtFuP-jJVBL_cVE-IeT-249">
          <mxGeometry relative="1" as="geometry" />
        </mxCell>
        <mxCell id="njtFuP-jJVBL_cVE-IeT-246" value="Auth_ID" style="text;align=left;verticalAlign=middle;spacingLeft=4;spacingRight=4;overflow=hidden;points=[[0,0.5],[1,0.5]];portConstraint=eastwest;rotatable=0;whiteSpace=wrap;html=1;fillColor=#f5f5f5;fontColor=#333333;strokeColor=#666666;" vertex="1" parent="1">
          <mxGeometry x="438" y="331" width="140" height="30" as="geometry" />
        </mxCell>
        <mxCell id="njtFuP-jJVBL_cVE-IeT-248" value="Balance" style="swimlane;fontStyle=0;childLayout=stackLayout;horizontal=1;startSize=30;horizontalStack=0;resizeParent=1;resizeParentMax=0;resizeLast=0;collapsible=1;marginBottom=0;whiteSpace=wrap;html=1;fillColor=#dae8fc;strokeColor=#6c8ebf;" vertex="1" parent="1">
          <mxGeometry x="740" y="372" width="140" height="90" as="geometry" />
        </mxCell>
        <mxCell id="njtFuP-jJVBL_cVE-IeT-249" value="User_ID&amp;nbsp;&lt;span style=&quot;color: rgb(51, 51, 51);&quot;&gt;(Foreign key)&lt;/span&gt;" style="text;strokeColor=#666666;fillColor=#f5f5f5;align=left;verticalAlign=middle;spacingLeft=4;spacingRight=4;overflow=hidden;points=[[0,0.5],[1,0.5]];portConstraint=eastwest;rotatable=0;whiteSpace=wrap;html=1;fontColor=#333333;" vertex="1" parent="njtFuP-jJVBL_cVE-IeT-248">
          <mxGeometry y="30" width="140" height="30" as="geometry" />
        </mxCell>
        <mxCell id="njtFuP-jJVBL_cVE-IeT-250" value="Balance" style="text;strokeColor=none;fillColor=none;align=left;verticalAlign=middle;spacingLeft=4;spacingRight=4;overflow=hidden;points=[[0,0.5],[1,0.5]];portConstraint=eastwest;rotatable=0;whiteSpace=wrap;html=1;" vertex="1" parent="njtFuP-jJVBL_cVE-IeT-248">
          <mxGeometry y="60" width="140" height="30" as="geometry" />
        </mxCell>
        <mxCell id="njtFuP-jJVBL_cVE-IeT-253" style="edgeStyle=none;curved=1;rounded=0;orthogonalLoop=1;jettySize=auto;html=1;exitX=1;exitY=0.5;exitDx=0;exitDy=0;entryX=0;entryY=0.5;entryDx=0;entryDy=0;fontSize=12;startSize=8;endSize=8;" edge="1" parent="1" source="njtFuP-jJVBL_cVE-IeT-234" target="njtFuP-jJVBL_cVE-IeT-246">
          <mxGeometry relative="1" as="geometry" />
        </mxCell>
      </root>
    </mxGraphModel>
  </diagram>
</mxfile>
